<?xml version="1.0" standalone="no"?>
<!DOCTYPE svg PUBLIC "-//W3C//DTD SVG 20010904//EN"
 "http://www.w3.org/TR/2001/REC-SVG-20010904/DTD/svg10.dtd">
<svg version="1.0" xmlns="http://www.w3.org/2000/svg"
 width="500.000000pt" height="500.000000pt" viewBox="0 0 500.000000 500.000000"
 preserveAspectRatio="xMidYMid meet">

<g transform="translate(0.000000,500.000000) scale(0.100000,-0.100000)"
fill="#000000" stroke="none">
<path d="M1690 3717 c0 -2 -11 -140 -25 -307 -14 -167 -25 -305 -25 -307 0 -2
15 -3 34 -3 34 0 35 1 46 58 46 233 98 321 218 375 92 40 174 46 630 47 237 0
432 -3 431 -7 0 -5 -148 -219 -328 -478 l-328 -470 -316 -3 -317 -2 0 -70 0
-70 265 -2 264 -3 -409 -588 c-345 -496 -410 -594 -410 -623 l0 -34 1012 2
1012 3 58 325 c31 178 56 325 55 326 -1 1 -14 5 -28 9 -25 6 -27 3 -54 -72
-38 -105 -108 -241 -150 -290 -47 -55 -115 -99 -195 -125 -63 -22 -78 -23
-644 -26 -390 -2 -577 0 -575 7 2 6 173 253 379 550 l375 540 343 1 342 0 0
70 0 70 -290 0 c-159 0 -290 2 -290 4 0 4 592 857 717 1034 l44 62 -920 0
c-507 0 -921 -1 -921 -3z"/>
</g>
</svg>
